<?xml version="1.0" standalone="no"?>
<!DOCTYPE svg PUBLIC "-//W3C//DTD SVG 20010904//EN"
 "http://www.w3.org/TR/2001/REC-SVG-20010904/DTD/svg10.dtd">
<svg version="1.0" xmlns="http://www.w3.org/2000/svg"
 width="104.000000pt" height="38.000000pt" viewBox="0 0 104.000000 38.000000"
 preserveAspectRatio="xMidYMid meet">

<g transform="translate(0.000000,38.000000) scale(0.100000,-0.100000)"
fill="#000000" stroke="none">
<path d="M90 200 c0 -89 0 -90 25 -90 21 0 25 5 25 30 0 27 3 30 30 30 60 0
94 72 48 104 -14 10 -44 16 -75 16 l-53 0 0 -90z m95 30 c0 -8 -10 -16 -22
-18 -18 -3 -23 2 -23 18 0 16 5 21 23 18 12 -2 22 -10 22 -18z"/>
<path d="M263 200 l-32 -90 30 0 c19 0 29 5 29 15 0 10 10 15 34 15 21 0 36
-6 40 -15 7 -18 60 -21 54 -3 -63 176 -59 168 -92 168 -30 0 -32 -3 -63 -90z
m70 -18 c-21 -5 -25 2 -17 34 l7 29 13 -30 c10 -25 10 -31 -3 -33z"/>
<path d="M450 200 l0 -90 58 0 c63 0 102 19 102 49 0 10 -7 24 -15 31 -11 9
-12 17 -5 30 25 46 -3 70 -81 70 l-59 0 0 -90z m95 35 c0 -5 -10 -11 -22 -13
-16 -2 -23 2 -23 13 0 11 7 15 23 13 12 -2 22 -7 22 -13z m6 -70 c0 -5 -12
-11 -26 -13 -18 -2 -25 1 -25 13 0 12 7 15 25 13 14 -2 26 -7 26 -13z"/>
<path d="M640 200 l0 -90 70 0 c63 0 70 2 70 20 0 17 -7 20 -45 20 l-45 0 0
70 c0 68 -1 70 -25 70 -25 0 -25 -1 -25 -90z"/>
<path d="M840 278 c-52 -28 -62 -105 -18 -144 28 -26 99 -25 127 0 28 26 30
105 2 130 -25 23 -80 30 -111 14z m68 -37 c8 -5 12 -23 10 -47 -3 -34 -6 -39
-30 -42 -22 -3 -30 2 -38 22 -19 51 17 93 58 67z"/>
</g>
</svg>
